<svg xmlns="http://www.w3.org/2000/svg" viewBox="0 0 180 180" width="180" height="180">
  <defs>
    <linearGradient id="appleGrad" x1="0%" y1="0%" x2="100%" y2="100%">
      <stop offset="0%" style="stop-color:#3B82F6;stop-opacity:1" />
      <stop offset="100%" style="stop-color:#1E40AF;stop-opacity:1" />
    </linearGradient>
  </defs>
  
  <!-- Background with rounded corners for iOS -->
  <rect x="0" y="0" width="180" height="180" rx="32" fill="url(#appleGrad)"/>
  
  <!-- Calendar body -->
  <rect x="45" y="60" width="90" height="75" rx="8" fill="white" stroke="#1E40AF" stroke-width="3"/>
  
  <!-- Calendar header -->
  <rect x="45" y="60" width="90" height="20" rx="8" fill="#1E40AF"/>
  
  <!-- Calendar binding rings -->
  <circle cx="65" cy="45" r="4" fill="white"/>
  <circle cx="115" cy="45" r="4" fill="white"/>
  
  <!-- Grid lines -->
  <line x1="65" y1="90" x2="125" y2="90" stroke="#1E40AF" stroke-width="2"/>
  <line x1="65" y1="105" x2="125" y2="105" stroke="#1E40AF" stroke-width="2"/>
  <line x1="65" y1="120" x2="125" y2="120" stroke="#1E40AF" stroke-width="2"/>
  <line x1="75" y1="82" x2="75" y2="133" stroke="#1E40AF" stroke-width="2"/>
  <line x1="90" y1="82" x2="90" y2="133" stroke="#1E40AF" stroke-width="2"/>
  <line x1="105" y1="82" x2="105" y2="133" stroke="#1E40AF" stroke-width="2"/>
  <line x1="120" y1="82" x2="120" y2="133" stroke="#1E40AF" stroke-width="2"/>
  
  <!-- Large checkmark -->
  <path d="M75 110 L85 120 L115 95" stroke="#3B82F6" stroke-width="6" fill="none" stroke-linecap="round" stroke-linejoin="round"/>
</svg>